<svg width="18" height="19" viewBox="0 0 18 19" fill="none" xmlns="http://www.w3.org/2000/svg">
<g clip-path="url(#clip0)">
<path d="M9.5 5.5C9.5 5.22386 9.27614 5 9 5C8.72386 5 8.5 5.22386 8.5 5.5V10C8.5 10.1894 8.607 10.3625 8.77639 10.4472L12.7764 12.4472C13.0234 12.5707 13.3237 12.4706 13.4472 12.2236C13.5707 11.9766 13.4706 11.6763 13.2236 11.5528L9.5 9.69098V5.5Z" fill="#212529"/>
<path fill-rule="evenodd" clip-rule="evenodd" d="M9 1.5C4.58172 1.5 1 5.08172 1 9.5C1 13.9183 4.58172 17.5 9 17.5C13.4183 17.5 17 13.9183 17 9.5C17 5.08172 13.4183 1.5 9 1.5ZM2 9.5C2 5.63401 5.13401 2.5 9 2.5C12.866 2.5 16 5.63401 16 9.5C16 13.366 12.866 16.5 9 16.5C5.13401 16.5 2 13.366 2 9.5Z" fill="#212529"/>
</g>
<defs>
<clipPath id="clip0">
<rect x="1" y="1.5" width="16" height="16" fill="white"/>
</clipPath>
</defs>
</svg>
