<svg width="18" height="19" viewBox="0 0 18 19" fill="none" xmlns="http://www.w3.org/2000/svg">
<path fill-rule="evenodd" clip-rule="evenodd" d="M9 2C5.69263 2 3 4.71942 3 8.08824C3 10.352 4.35597 12.4762 5.86719 14.1282C7.12786 15.5063 8.44308 16.4977 9 16.893C9.55691 16.4977 10.8721 15.5063 12.1328 14.1282C13.644 12.4762 15 10.352 15 8.08824C15 4.71942 12.3074 2 9 2ZM2 8.08824C2 4.17989 5.12767 1 9 1C12.8723 1 16 4.17989 16 8.08824C16 10.7335 14.4332 13.095 12.8707 14.8032C11.2957 16.5249 9.64676 17.6677 9.32954 17.8813C9.24351 17.9392 9.13094 17.9831 9 17.9831C8.86906 17.9831 8.75649 17.9392 8.67046 17.8813C8.35324 17.6677 6.70432 16.5249 5.12934 14.8031C3.56677 13.095 2 10.7334 2 8.08824ZM9 6C7.89543 6 7 6.89543 7 8C7 9.10457 7.89543 10 9 10C10.1046 10 11 9.10457 11 8C11 6.89543 10.1046 6 9 6ZM6 8C6 6.34315 7.34315 5 9 5C10.6569 5 12 6.34315 12 8C12 9.65685 10.6569 11 9 11C7.34315 11 6 9.65685 6 8Z" fill="#212529"/>
</svg>
