<svg width="120" height="120" viewBox="0 0 120 120" fill="none" xmlns="http://www.w3.org/2000/svg">
<rect width="120" height="120" fill="#F8F9FA"/>
<path d="M33.2856 60.2857V87.5714C33.2856 88.1237 33.7334 88.5714 34.2856 88.5714H85.7142C86.2665 88.5714 86.7142 88.1237 86.7142 87.5714V60.2857" stroke="#DDE2E6" stroke-width="3" stroke-linecap="round" stroke-linejoin="round"/>
<path d="M52.1428 72.7143C52.1428 71.0575 53.486 69.7143 55.1428 69.7143H64.8571C66.514 69.7143 67.8571 71.0575 67.8571 72.7143V88.5715H52.1428V72.7143Z" stroke="#DDE2E6" stroke-width="3" stroke-linecap="round" stroke-linejoin="round"/>
<path d="M35.0021 32.6376C35.1515 32.2532 35.5217 32 35.9341 32H84.0659C84.4783 32 84.8485 32.2532 84.9979 32.6376L92.8769 52.8978C92.9567 53.103 92.9672 53.3274 92.8933 53.5349C92.4015 54.9157 90.142 60.2857 84.75 60.2857C78.5625 60.2857 76.5 53.2143 76.5 53.2143C76.5 53.2143 74.4375 60.2857 68.25 60.2857C62.0625 60.2857 60 53.2143 60 53.2143C60 53.2143 57.9375 60.2857 51.75 60.2857C45.5625 60.2857 43.5 53.2143 43.5 53.2143C43.5 53.2143 41.4375 60.2857 35.25 60.2857C29.858 60.2857 27.5985 54.9157 27.1067 53.5349C27.0328 53.3274 27.0433 53.103 27.1231 52.8978L35.0021 32.6376Z" stroke="#DDE2E6" stroke-width="3" stroke-linecap="round" stroke-linejoin="round"/>
</svg>
