<svg width="640" height="640" viewBox="0 0 640 640" fill="none" xmlns="http://www.w3.org/2000/svg">
<path d="M0 0H640V640H0V0Z" fill="#DDE2E6"/>
<path d="M505.076 276.392C505.076 341.555 471.194 398.801 420.093 431.464C506.077 466.256 569.542 545.086 582.544 640H59.9561C72.9584 545.086 136.423 466.256 222.407 431.464C171.306 398.801 137.424 341.555 137.424 276.392C137.424 174.831 219.726 92.5 321.25 92.5C422.774 92.5 505.076 174.831 505.076 276.392Z" fill="#F8F9FA"/>
<path d="M262.5 254.75C257.529 254.75 253.5 258.779 253.5 263.75V273.75C253.5 278.721 257.529 282.75 262.5 282.75C267.471 282.75 271.5 278.721 271.5 273.75V263.75C271.5 258.779 267.471 254.75 262.5 254.75Z" fill="#CED4DA"/>
<path d="M377.5 254.75C372.529 254.75 368.5 258.779 368.5 263.75V273.75C368.5 278.721 372.529 282.75 377.5 282.75C382.471 282.75 386.5 278.721 386.5 273.75V263.75C386.5 258.779 382.471 254.75 377.5 254.75Z" fill="#CED4DA"/>
<path d="M274.159 319.542C272.525 315.437 267.873 313.433 263.768 315.067C259.663 316.701 257.659 321.353 259.293 325.458C268.914 349.636 292.535 366.75 320.172 366.75C347.808 366.75 371.429 349.636 381.05 325.458C382.684 321.353 380.68 316.701 376.575 315.067C372.47 313.433 367.818 315.437 366.184 319.542C358.903 337.839 341.035 350.75 320.172 350.75C299.308 350.75 281.44 337.839 274.159 319.542Z" fill="#CED4DA"/>
</svg>
