<svg width="18" height="19" viewBox="0 0 18 19" fill="none" xmlns="http://www.w3.org/2000/svg">
<path fill-rule="evenodd" clip-rule="evenodd" d="M3.68902 2C3.06661 2 2.50887 2.38437 2.28729 2.96601L0.651049 7.26114C0.538278 7.55717 0.508101 7.91902 0.660271 8.26266C0.828919 8.64351 1.23762 9.39322 2 9.77098V15.5C2 16.3284 2.67157 17 3.5 17H14.5C15.3284 17 16 16.3284 16 15.5V9.77085C16.7622 9.39305 17.1708 8.64346 17.3395 8.26266C17.4916 7.91902 17.4615 7.55717 17.3487 7.26114L15.7124 2.96601C15.4909 2.38437 14.9331 2 14.3107 2H3.68902ZM15 10C15 10 15 10 15 10C14.2149 10 13.6461 9.62284 13.267 9.20851C13.1664 9.09852 13.0776 8.98457 12.9999 8.87197C12.9221 8.98457 12.8334 9.09852 12.7327 9.20851C12.3537 9.62284 11.785 10 10.9999 10C10.2148 10 9.64608 9.62284 9.26699 9.20851C9.16635 9.09852 9.07764 8.98457 8.99987 8.87197C8.9221 8.98457 8.83339 9.09852 8.73275 9.20851C8.35366 9.62284 7.78499 10 6.99987 10C6.21475 10 5.64608 9.62284 5.26699 9.20851C5.16635 9.09852 5.07764 8.98457 4.99987 8.87198C4.9221 8.98457 4.83338 9.09852 4.73275 9.20851C4.35368 9.62282 3.78505 9.99996 3 10V15.5C3 15.7761 3.22386 16 3.5 16H6.5V14C6.5 12.6193 7.61929 11.5 9 11.5C10.3807 11.5 11.5 12.6193 11.5 14V16H14.5C14.7761 16 15 15.7761 15 15.5V10ZM3.22178 3.322C3.29564 3.12812 3.48155 3 3.68902 3H14.3107C14.5182 3 14.7041 3.12812 14.778 3.322L16.4142 7.61714C16.4552 7.72472 16.4478 7.80648 16.4251 7.85776C16.2111 8.34112 15.769 9 14.9999 9C14.5695 9 14.2511 8.80265 14.0048 8.53348C13.7514 8.25652 13.597 7.92471 13.5237 7.73496C13.4185 7.46248 13.163 7.37985 12.9999 7.37985C12.8367 7.37985 12.5812 7.46248 12.476 7.73496C12.4028 7.92471 12.2484 8.25652 11.995 8.53348C11.7487 8.80265 11.4302 9 10.9999 9C10.5695 9 10.2511 8.80265 10.0048 8.53348C9.75137 8.25652 9.59696 7.92471 9.52371 7.73496C9.41852 7.46248 9.16303 7.37985 8.99987 7.37985C8.83671 7.37985 8.58122 7.46248 8.47603 7.73496C8.40278 7.92471 8.24837 8.25652 7.99497 8.53348C7.74868 8.80265 7.4302 9 6.99987 9C6.56954 9 6.25105 8.80265 6.00477 8.53348C5.75137 8.25652 5.59696 7.92471 5.52371 7.73496C5.41852 7.46248 5.16303 7.37985 4.99987 7.37985C4.83671 7.37985 4.58122 7.46248 4.47603 7.73496C4.40278 7.92471 4.24837 8.25652 3.99497 8.53348C3.74868 8.80265 3.4302 9 2.99987 9C2.23071 9 1.78868 8.34113 1.57463 7.85776C1.55193 7.80648 1.54455 7.72472 1.58554 7.61714L3.22178 3.322ZM10.5 14V16H7.5V14C7.5 13.1716 8.17157 12.5 9 12.5C9.82843 12.5 10.5 13.1716 10.5 14Z" fill="#212529"/>
</svg>
